<?xml version="1.0" standalone="no"?>
<!DOCTYPE svg PUBLIC "-//W3C//DTD SVG 20010904//EN"
 "http://www.w3.org/TR/2001/REC-SVG-20010904/DTD/svg10.dtd">
<svg version="1.0" xmlns="http://www.w3.org/2000/svg"
 width="864.000000pt" height="1280.000000pt" viewBox="0 0 864.000000 1280.000000"
 preserveAspectRatio="xMidYMid meet">
<g transform="translate(0.000000,1280.000000) scale(0.100000,-0.100000)"
fill="#000000" stroke="none">
<path d="M3520 12789 c-255 -34 -321 -65 -540 -249 -85 -71 -159 -130 -165
-130 -5 0 -39 7 -74 15 -71 17 -93 15 -32 -3 49 -15 66 -34 52 -60 -26 -49
-406 -379 -484 -421 -39 -21 -57 -8 -57 39 l0 41 -60 -51 c-72 -59 -107 -71
-127 -45 -17 24 -16 55 2 133 38 159 102 212 258 212 79 0 111 12 102 40 -8
24 20 50 54 50 15 0 36 6 47 14 17 13 18 15 2 21 -27 11 -160 -14 -193 -35
-16 -11 -59 -34 -95 -51 -82 -39 -177 -106 -220 -155 -32 -37 -32 -38 -11 -45
24 -10 27 -37 7 -64 -14 -19 -14 -19 -36 0 -22 19 -22 19 -36 0 -8 -10 -14
-33 -14 -51 0 -33 -21 -64 -44 -64 -7 0 -21 9 -31 20 l-19 21 -12 -23 c-23
-44 -36 -141 -30 -213 8 -96 4 -100 -93 -97 l-79 3 2 -138 c1 -117 -2 -143
-16 -166 -10 -14 -18 -42 -18 -62 0 -19 -9 -52 -20 -72 -19 -36 -19 -36 2 -74
23 -42 19 -65 -14 -78 -31 -11 -44 -5 -58 29 -6 15 -22 38 -36 50 -31 30 -54
13 -54 -41 0 -52 12 -78 59 -133 31 -36 41 -56 41 -82 0 -65 -47 -123 -89
-109 -37 12 -74 63 -82 116 -5 31 -24 79 -49 121 -46 76 -46 100 -3 96 27 -3
28 -2 25 45 -4 45 -2 48 27 58 27 10 31 15 29 48 -1 25 6 48 21 68 27 37 21
89 -15 128 -30 32 -40 32 -59 -5 -18 -35 -24 -37 -55 -10 -29 25 -26 25 -46
-6 -11 -16 -20 -59 -25 -115 -5 -62 -13 -100 -28 -125 -26 -44 -27 -100 -1
-221 21 -99 42 -157 67 -185 9 -10 45 -34 80 -54 42 -23 72 -49 88 -74 14 -21
58 -63 98 -94 87 -63 117 -102 124 -157 7 -49 -20 -84 -74 -94 -50 -9 -78 14
-116 93 -17 37 -33 60 -35 51 -4 -19 34 -108 71 -166 14 -23 29 -53 33 -67 5
-23 3 -26 -19 -26 -18 0 -42 18 -84 64 -74 81 -92 92 -181 111 -127 26 -234
96 -300 194 -62 93 -64 139 -9 261 17 38 19 58 14 135 -11 161 -25 173 -62 53
-59 -194 -68 -334 -26 -422 12 -23 55 -72 97 -110 42 -38 101 -102 130 -143
60 -80 83 -97 122 -90 33 6 80 -10 92 -33 28 -52 -7 -130 -59 -130 -15 0 -52
13 -82 30 -34 18 -82 33 -123 39 -48 7 -76 17 -93 33 -17 16 -42 24 -91 30
-37 4 -86 10 -109 14 -56 9 -73 -6 -73 -60 0 -86 48 -217 104 -284 43 -50 30
-85 -22 -58 -50 26 -130 105 -152 151 -12 25 -26 43 -31 39 -13 -7 -11 -282 2
-343 6 -28 24 -70 40 -93 32 -48 36 -84 14 -143 -27 -74 -14 -153 33 -200 37
-38 93 -62 255 -109 76 -23 138 -45 138 -51 0 -5 -32 -13 -71 -17 -39 -3 -74
-8 -77 -11 -17 -18 76 -94 137 -112 119 -35 163 -126 53 -109 -39 6 -48 3 -73
-21 -37 -35 -57 -28 -117 41 -26 30 -50 54 -55 54 -17 0 -6 -37 28 -92 35 -57
37 -78 8 -78 -28 0 -13 -42 34 -93 60 -64 66 -79 48 -121 -20 -48 -31 -50 -55
-11 -17 29 -26 35 -55 35 -58 0 -83 31 -101 130 -38 205 -62 273 -90 250 -24
-20 -36 -98 -29 -185 5 -65 3 -87 -9 -106 -14 -21 -14 -28 -2 -56 13 -31 26
-40 106 -71 15 -6 37 -30 50 -54 30 -53 54 -58 149 -29 37 12 77 21 87 21 40
0 128 -56 197 -124 90 -90 130 -162 130 -233 0 -113 -62 -108 -124 9 -43 80
-52 92 -44 50 31 -153 -130 -105 -344 102 -105 101 -134 120 -202 131 -60 10
-70 20 -70 70 0 37 -5 47 -44 83 -24 22 -52 45 -64 51 -31 17 -39 -5 -13 -37
37 -47 45 -70 31 -87 -7 -8 -20 -15 -30 -15 -24 0 -37 -18 -45 -62 -4 -21 -14
-43 -22 -50 -22 -18 -49 19 -64 90 -25 123 -34 147 -54 147 -29 0 -65 -70 -65
-126 0 -55 36 -115 102 -170 65 -55 100 -69 166 -69 67 0 82 -11 82 -57 0 -25
4 -33 18 -33 23 0 40 30 55 100 8 35 18 56 28 58 25 5 159 -128 159 -158 0
-29 -28 -75 -59 -97 -12 -8 -26 -25 -31 -37 -17 -45 62 -136 119 -136 32 0 36
25 11 60 -26 37 -21 45 24 42 28 -2 38 3 56 28 25 35 40 37 63 12 24 -27 21
-51 -18 -133 -22 -48 -39 -104 -48 -159 -15 -97 -26 -105 -60 -45 -13 22 -27
39 -32 38 -6 -2 -10 -33 -10 -70 l0 -68 35 -3 c68 -7 127 49 166 157 64 174
111 251 153 251 22 0 41 -19 41 -42 0 -27 -66 -218 -105 -304 l-36 -78 66 63
c67 64 88 71 93 32 5 -33 -89 -215 -148 -288 -27 -34 -50 -65 -50 -68 0 -4 22
9 49 28 64 46 109 69 121 62 27 -17 1 -69 -75 -153 -26 -29 -45 -55 -42 -59 4
-3 24 2 47 11 46 18 76 21 85 6 16 -27 -76 -130 -152 -168 -166 -85 -363 -10
-363 137 0 52 27 81 74 81 45 0 66 22 66 68 0 54 -74 202 -100 202 -5 0 -17
-13 -26 -30 -22 -37 -42 -45 -64 -25 -42 38 -50 17 -60 -161 -4 -78 -10 -146
-14 -153 -22 -34 -56 9 -56 70 0 34 -24 40 -40 9 -39 -73 2 -299 68 -373 41
-47 204 -119 223 -100 5 5 -9 39 -31 77 -46 79 -51 101 -18 91 11 -4 64 -15
117 -24 l96 -16 5 -38 5 -38 117 75 c151 98 176 100 134 10 -27 -57 -76 -121
-114 -147 l-27 -19 30 7 c33 7 116 57 136 81 21 25 70 46 94 40 30 -8 58 -77
50 -120 -18 -83 -76 -144 -188 -197 -169 -79 -425 -79 -604 0 -73 32 -93 32
-53 -1 66 -55 258 -118 356 -118 61 0 104 -14 104 -33 0 -37 -150 -217 -181
-217 -20 0 -32 21 -44 75 -7 30 -7 30 -36 -27 -36 -70 -53 -81 -121 -72 -50 7
-52 6 -39 -10 8 -10 38 -29 65 -43 113 -57 129 -82 76 -121 -16 -13 -30 -29
-30 -37 0 -12 19 -14 110 -12 l110 2 38 -41 c53 -58 105 -73 176 -51 74 24 81
22 134 -26 26 -23 54 -48 63 -54 30 -24 286 -55 399 -50 136 6 182 23 250 92
34 35 63 55 77 55 40 0 26 -35 -38 -94 -99 -92 -284 -170 -475 -202 -54 -9
-109 -18 -122 -20 -31 -6 -44 -43 -30 -87 16 -52 2 -102 -40 -146 -61 -64
-115 -67 -172 -9 -29 28 -32 37 -27 75 5 47 2 50 -27 28 -25 -19 -16 -52 31
-104 29 -32 50 -45 88 -54 50 -12 50 -12 55 -57 3 -28 16 -59 34 -83 16 -20
30 -37 31 -37 1 0 -6 18 -17 40 -35 69 -21 150 25 150 13 0 47 -15 77 -33 41
-24 63 -46 87 -87 60 -104 68 -113 148 -158 44 -25 100 -60 123 -78 101 -77
201 -90 299 -41 62 32 88 62 103 115 9 35 18 46 45 58 25 10 37 23 43 47 11
42 46 44 76 4 18 -24 21 -42 21 -120 0 -148 -42 -233 -126 -257 -164 -47 -513
61 -761 236 -72 51 -58 33 24 -31 167 -131 440 -225 659 -228 161 -2 192 29
249 251 6 25 16 42 23 40 22 -7 106 -183 151 -318 51 -153 86 -313 86 -392 0
-240 -117 -664 -265 -958 -52 -104 -88 -148 -164 -200 -171 -117 -295 -301
-565 -841 -126 -252 -179 -374 -191 -444 -10 -55 8 -33 23 29 44 174 495 993
617 1119 40 42 103 80 120 73 25 -9 17 -33 -42 -121 -64 -97 -66 -123 -3 -43
171 215 379 560 440 726 45 123 51 186 58 589 8 410 9 419 61 369 60 -57 95
-171 116 -371 8 -77 21 -159 29 -182 15 -43 58 -110 139 -217 90 -119 140
-248 156 -404 5 -46 11 -85 13 -87 3 -3 12 34 21 83 58 301 49 469 -39 703
-55 148 -70 218 -79 364 -8 128 5 244 36 315 30 70 112 143 291 260 198 130
325 195 572 290 239 92 356 144 490 217 445 243 720 576 852 1031 13 47 23 87
21 89 -2 2 -23 -50 -47 -114 -23 -65 -61 -154 -83 -198 -119 -229 -337 -442
-660 -643 -282 -175 -391 -206 -727 -206 -440 -1 -752 87 -946 266 -66 61
-122 137 -194 263 -87 154 -117 193 -185 240 -127 86 -139 131 -190 695 -8 91
-22 206 -30 255 -45 259 -173 662 -248 780 -31 48 -32 51 -29 157 l2 108 -30
0 c-25 0 -30 4 -30 23 0 29 43 89 100 141 81 73 158 95 385 112 77 6 78 6 47
20 -34 14 -43 43 -18 63 8 7 65 23 127 36 62 13 124 32 138 42 14 10 41 49 58
85 44 91 57 96 151 67 41 -13 77 -30 80 -37 3 -9 -14 -32 -44 -59 l-49 -44 35
6 c131 23 203 56 186 84 -33 53 -432 174 -630 192 -155 13 -161 21 -53 75 39
21 67 39 60 41 -18 6 -135 -51 -228 -111 -191 -125 -214 -122 -159 21 60 156
62 183 15 183 -38 0 -50 16 -44 58 4 29 0 41 -16 56 -80 73 96 200 304 220 99
10 200 -7 350 -59 144 -49 238 -63 302 -46 60 16 63 29 16 71 -46 41 -232 139
-308 163 -161 51 -344 90 -425 91 -108 1 -147 -16 -258 -112 -94 -82 -122 -90
-122 -39 0 51 37 184 62 226 12 20 74 90 138 156 180 186 325 393 420 600 46
98 80 213 80 267 0 42 16 89 33 100 17 10 47 -21 47 -49 0 -12 5 -23 11 -23
12 0 11 6 -16 155 -8 44 -14 93 -15 108 0 33 28 49 42 23 13 -22 25 -13 50 40
37 79 92 81 104 3 8 -49 22 -46 52 11 12 25 27 45 34 45 6 0 17 -24 24 -54 23
-86 37 -94 54 -30 9 33 15 40 33 37 20 -3 22 -8 19 -49 -2 -26 1 -50 7 -53 11
-7 20 21 46 142 31 141 51 137 61 -11 7 -92 15 -116 28 -82 3 8 8 62 12 120 4
63 11 104 17 102 5 -1 24 -44 42 -95 17 -51 35 -95 38 -99 10 -9 15 15 20 95
6 106 48 141 110 92 32 -25 37 -25 37 0 0 33 -28 90 -65 136 -45 55 -69 63
-101 33 -21 -20 -33 -22 -99 -21 -84 3 -116 -8 -183 -63 -33 -27 -53 -35 -83
-35 -21 0 -56 -9 -76 -20 -27 -14 -57 -20 -105 -20 -79 0 -98 -13 -98 -71 0
-46 -27 -79 -64 -79 -35 0 -38 -11 -20 -64 18 -53 13 -76 -15 -76 -28 0 -29
-7 -15 -85 35 -196 2 -317 -133 -485 -38 -47 -75 -85 -83 -85 -18 0 -16 61 7
210 28 184 28 171 10 157 -9 -8 -23 -35 -32 -62 -44 -134 -85 -66 -111 184 -4
36 -10 66 -14 66 -4 0 -13 -14 -20 -30 -21 -52 -69 -110 -89 -110 -51 0 -37
61 40 184 34 54 58 100 55 103 -3 3 -35 -21 -72 -53 -93 -83 -112 -97 -129
-90 -17 6 -12 25 21 76 31 46 57 125 99 290 44 176 96 321 139 384 79 119 344
413 626 696 228 230 326 314 383 329 83 22 217 32 542 38 368 7 377 5 422 -59
12 -17 38 -40 59 -52 28 -16 41 -32 52 -64 10 -31 25 -50 52 -67 20 -13 57
-47 82 -77 55 -64 156 -217 182 -275 21 -48 42 -58 32 -15 -12 50 -114 246
-180 346 -66 98 -79 139 -54 164 37 37 100 -17 222 -191 38 -53 71 -95 74 -93
2 3 -19 54 -47 113 -56 119 -60 138 -33 152 46 24 197 -99 246 -202 14 -29 41
-128 61 -225 20 -95 40 -182 45 -195 6 -14 7 45 3 163 -5 162 -4 187 10 198
24 20 51 7 70 -34 10 -19 29 -95 43 -167 14 -73 34 -177 44 -231 29 -147 35
-146 48 11 10 116 26 166 54 171 25 5 35 -23 72 -184 19 -80 36 -148 40 -151
3 -4 17 4 31 17 38 35 54 21 57 -52 3 -62 4 -63 33 -66 37 -5 55 -19 55 -43 0
-15 7 -19 33 -19 23 0 40 -8 55 -25 12 -14 33 -25 46 -25 27 0 86 -44 86 -64
0 -15 42 -56 58 -56 44 0 58 -185 22 -287 -11 -31 -17 -59 -14 -62 2 -3 16 8
29 24 62 78 80 -57 30 -228 -31 -108 -55 -157 -108 -219 -22 -27 -38 -51 -34
-54 3 -3 25 6 50 20 24 14 49 26 55 26 18 0 15 -143 -3 -187 -8 -20 -33 -56
-56 -80 -22 -24 -39 -49 -36 -56 2 -7 35 -15 77 -19 40 -4 79 -13 86 -19 18
-15 18 -60 -1 -85 -21 -28 -18 -55 11 -85 l27 -28 -22 -36 c-11 -20 -21 -38
-21 -41 0 -2 15 -4 34 -4 48 0 67 -22 60 -69 -10 -65 36 -60 118 14 21 19 44
35 51 35 40 0 49 -65 17 -118 -24 -39 -25 -58 -4 -66 16 -6 16 -18 -1 -72 -6
-19 0 -24 43 -38 57 -19 69 -38 46 -73 -14 -23 -14 -26 2 -44 13 -14 18 -37
19 -77 0 -53 2 -57 35 -79 69 -44 81 -55 93 -81 6 -15 24 -39 39 -54 16 -14
28 -33 28 -41 0 -18 44 -52 130 -99 109 -61 135 -97 84 -120 -20 -9 -44 -8
-113 5 -100 19 -125 21 -116 8 6 -11 85 -34 175 -51 82 -15 137 -37 145 -58 9
-24 -27 -50 -83 -58 -63 -9 -65 -11 -45 -45 13 -22 14 -32 5 -41 -18 -18 -73
3 -177 67 -49 30 -96 55 -103 55 -49 0 84 -108 205 -166 157 -76 150 -115 -21
-124 -58 -3 -107 -8 -111 -11 -18 -19 105 -121 165 -136 18 -5 38 -18 44 -28
15 -27 27 -35 54 -35 41 0 85 -30 174 -118 48 -47 91 -83 95 -79 3 4 -4 44
-17 89 -19 67 -21 86 -12 111 13 34 9 45 -44 108 -53 64 -63 88 -40 104 12 9
27 11 47 5 33 -10 32 -11 33 50 1 42 3 46 35 56 46 15 57 38 35 72 -10 15 -26
33 -36 40 -31 23 -78 114 -78 153 0 38 24 77 50 80 46 5 67 -4 112 -51 54 -56
61 -56 21 0 -49 68 -85 85 -179 85 -66 0 -86 4 -103 19 -26 24 -26 40 0 82 16
26 18 37 9 53 -14 28 -42 41 -84 41 -67 0 -75 28 -55 176 7 45 9 94 5 109 -4
14 -34 55 -67 91 -33 36 -67 80 -75 99 -7 18 -27 43 -43 54 -16 12 -35 37 -41
56 -6 19 -19 37 -30 40 -24 8 -28 29 -22 113 4 67 3 71 -22 87 -35 23 -34 55
8 163 52 134 78 229 83 312 7 92 -4 118 -78 184 -62 56 -106 70 -299 97 -80
11 -149 24 -153 29 -5 4 9 63 31 131 50 152 66 244 59 323 -12 125 -30 149
-447 571 -168 171 -348 356 -400 413 -115 126 -184 173 -435 299 l-190 95
-520 3 c-310 2 -550 0 -595 -6z m-1655 -1243 c47 -34 -44 -78 -117 -57 -44 14
-52 46 -15 61 34 14 111 12 132 -4z m-118 -461 c42 -74 21 -122 -28 -67 -31
35 -45 73 -35 98 10 26 39 11 63 -31z m4464 -242 c42 -25 59 -69 59 -156 0
-89 -29 -192 -64 -230 -48 -52 -61 -30 -69 108 -6 111 -25 177 -62 217 -14 15
-25 34 -25 42 0 34 113 47 161 19z m181 -40 c46 -49 63 -84 79 -162 22 -111
-21 -258 -97 -332 -92 -89 -153 62 -94 236 17 53 24 96 26 175 1 58 3 108 3
113 3 21 51 3 83 -30z m-362 -28 c55 -28 81 -117 60 -203 -18 -78 -59 -111
-94 -76 -22 21 -20 66 5 124 27 62 22 80 -21 95 -37 13 -49 37 -30 60 16 19
43 19 80 0z m-5122 -832 c6 -16 13 -53 15 -83 3 -30 14 -75 26 -100 19 -43 21
-44 60 -41 84 6 151 -38 113 -73 -28 -25 -74 -30 -115 -12 -36 15 -37 14 -43
-9 -8 -33 -35 -55 -78 -62 -53 -8 -69 9 -61 66 3 25 8 54 11 64 4 11 -5 28
-25 46 -17 16 -31 36 -31 44 0 9 18 37 40 62 32 37 40 54 40 86 0 31 4 39 19
39 11 0 23 -11 29 -27z m222 -63 c11 -11 17 -26 14 -35 -7 -17 -56 -20 -85 -5
-19 10 -26 40 -12 53 13 14 64 6 83 -13z m202 -30 c29 -23 53 -73 44 -95 -9
-24 -63 -19 -91 10 -27 26 -33 73 -13 93 17 17 31 15 60 -8z m5341 -361 c18
-38 14 -69 -9 -69 -20 0 -44 41 -44 78 0 45 29 40 53 -9z m-4229 -780 c53 -25
34 -83 -21 -63 -31 11 -41 37 -23 59 15 18 13 18 44 4z m-617 -645 c33 -9 43
-54 50 -210 7 -161 2 -190 -32 -206 -22 -10 -29 -8 -50 12 -63 59 -87 338 -34
391 20 20 31 22 66 13z m-134 -1592 c46 -47 59 -90 51 -163 -8 -73 5 -81 56
-35 32 29 48 36 81 36 22 0 49 -5 59 -10 28 -15 51 -101 57 -215 5 -88 3 -103
-13 -123 -29 -35 -66 -20 -139 54 -34 35 -64 64 -67 64 -3 0 1 -23 10 -51 l17
-51 -28 -24 c-55 -48 -86 -28 -101 63 l-11 68 -69 5 c-52 4 -71 10 -82 24 -33
45 -10 64 81 68 l70 3 3 37 c2 27 -7 61 -32 117 -34 73 -47 147 -29 164 16 17
52 4 86 -31z m-493 -47 c31 -38 -103 -175 -171 -175 -27 0 -59 30 -59 56 0 20
50 73 84 91 25 13 101 38 127 42 4 1 12 -6 19 -14z m314 -25 c34 -12 34 -47 1
-62 -48 -22 -118 30 -79 59 21 16 44 16 78 3z m-550 -186 c18 -18 22 -95 6
-125 -13 -23 -33 -25 -50 -4 -25 30 -9 145 20 145 5 0 16 -7 24 -16z m176 -64
c24 -24 25 -38 3 -62 -23 -26 -87 -24 -107 3 -39 56 54 109 104 59z"/>
<path d="M3504 12571 c-113 -18 -230 -77 -298 -150 -38 -40 -25 -39 71 3 43
19 114 45 158 57 186 51 456 -16 610 -150 66 -58 84 -52 38 12 -36 51 -126
125 -202 166 -97 51 -266 79 -377 62z"/>
<path d="M2465 12461 c44 -5 107 -11 140 -14 49 -6 55 -5 35 4 -14 7 -77 13
-140 15 -107 2 -109 2 -35 -5z"/>
<path d="M2343 12453 c9 -2 23 -2 30 0 6 3 -1 5 -18 5 -16 0 -22 -2 -12 -5z"/>
<path d="M1940 12361 c-108 -117 -128 -147 -65 -95 78 63 127 94 155 95 25 0
25 0 3 9 -27 11 -29 22 -7 55 35 53 -8 21 -86 -64z"/>
<path d="M3463 12233 c15 -2 39 -2 55 0 15 2 2 4 -28 4 -30 0 -43 -2 -27 -4z"/>
<path d="M3151 12207 c-69 -23 -94 -48 -73 -69 14 -14 46 1 126 57 57 41 41
45 -53 12z"/>
<path d="M4265 12137 c4 -12 22 -62 40 -112 41 -112 54 -158 70 -260 8 -48 10
-84 4 -89 -11 -12 -8 -16 -67 85 -74 126 -212 305 -212 276 0 -4 25 -47 55
-97 76 -125 88 -151 129 -269 25 -74 53 -130 100 -199 35 -54 76 -123 91 -154
33 -70 47 -83 73 -69 26 14 101 125 108 160 14 68 21 85 41 98 19 13 24 12 42
-6 26 -26 28 -26 42 1 30 55 29 382 -1 412 -7 7 -10 5 -10 -4 -1 -29 -29 -216
-36 -233 -10 -26 -30 -20 -44 13 -17 40 -26 38 -35 -7 -20 -106 -63 -122 -81
-30 -8 38 -21 66 -37 83 -15 14 -60 93 -102 174 -77 151 -131 232 -160 244
-13 5 -15 1 -10 -17z"/>
<path d="M3325 12114 c-176 -39 -369 -151 -316 -184 7 -4 54 -10 106 -14 51
-3 127 -15 169 -26 87 -22 228 -85 281 -125 51 -40 43 -15 -12 37 -63 58 -141
101 -233 129 -100 29 -130 45 -130 69 0 39 54 55 181 55 l116 0 84 -42 c111
-55 228 -151 329 -268 45 -52 86 -95 91 -95 25 0 -75 170 -145 248 -56 61
-149 126 -269 186 -91 46 -148 53 -252 30z"/>
<path d="M2975 12100 c-16 -10 -37 -30 -47 -42 -18 -24 -24 -58 -10 -58 23 0
122 86 122 107 0 19 -31 16 -65 -7z"/>
<path d="M1455 11954 c-16 -8 -38 -23 -49 -32 -22 -21 -60 -92 -52 -100 3 -3
6 0 6 6 0 20 61 82 81 82 10 0 27 -12 36 -27 l18 -27 6 29 c11 51 10 85 -3 85
-7 0 -26 -7 -43 -16z"/>
<path d="M1566 11870 c-14 -25 -23 -31 -42 -27 l-24 4 18 -31 c26 -45 54 -41
64 9 5 22 7 48 6 58 -2 15 -7 12 -22 -13z"/>
<path d="M2814 11789 c-97 -62 -242 -235 -340 -406 -24 -43 -44 -84 -44 -92 0
-8 28 13 63 46 72 69 131 103 182 103 39 0 40 2 23 29 -6 10 -8 25 -5 34 11
30 95 69 172 80 71 9 88 18 65 32 -18 11 -11 47 10 52 13 4 19 11 16 22 -17
53 54 53 277 -3 241 -60 290 -94 436 -301 45 -64 85 -115 87 -112 9 9 -52 120
-101 185 -81 108 -216 207 -351 258 -38 14 -125 37 -193 50 -68 14 -140 32
-159 40 -52 21 -83 17 -138 -17z"/>
<path d="M1215 11540 c-7 -12 2 -12 30 0 19 8 19 9 -2 9 -12 1 -25 -3 -28 -9z"/>
<path d="M1046 11381 c-36 -71 -59 -94 -106 -106 -14 -3 -33 -12 -44 -20 -18
-13 -18 -15 3 -40 11 -15 23 -43 27 -64 11 -70 35 -142 44 -136 6 4 10 32 10
64 0 50 -3 59 -20 64 -16 4 -20 14 -20 49 0 40 4 47 44 81 43 35 117 160 103
173 -3 3 -22 -26 -41 -65z"/>
<path d="M4773 11180 c-51 -58 -129 -138 -173 -178 -44 -40 -80 -77 -80 -82 0
-5 26 -14 58 -20 289 -56 432 -116 562 -235 79 -72 110 -90 110 -62 0 8 -18
33 -40 57 -22 24 -40 49 -40 55 0 20 33 42 85 58 l50 15 -32 12 c-72 26 -49
69 90 166 42 30 77 59 77 64 0 12 -58 -9 -136 -48 -95 -48 -205 -83 -264 -85
-81 -3 -78 19 9 66 63 34 105 67 86 67 -5 0 -57 -16 -116 -35 -118 -38 -209
-47 -209 -20 0 18 29 37 92 60 26 10 53 24 59 31 7 9 -7 7 -45 -7 -43 -15 -61
-17 -76 -9 -25 14 -25 19 6 108 14 40 24 85 22 100 -3 24 -11 17 -95 -78z"/>
<path d="M3560 11044 c-13 -33 -13 -125 0 -159 31 -82 130 -100 236 -45 31 17
95 40 142 52 90 22 146 57 126 78 -30 30 -224 34 -270 4 -19 -11 -25 -11 -45
6 -13 12 -34 19 -52 18 -17 -1 -32 3 -35 10 -2 6 -12 12 -23 12 -11 0 -31 11
-45 25 l-25 25 -9 -26z"/>
<path d="M670 10973 c-24 -42 -63 -134 -58 -139 2 -2 22 37 45 87 23 49 40 89
38 89 -2 0 -13 -17 -25 -37z"/>
<path d="M5730 9801 c0 -5 9 -47 20 -94 30 -125 50 -280 50 -387 0 -156 -15
-176 -65 -85 -33 61 -95 129 -95 104 0 -9 6 -38 14 -65 8 -27 26 -104 40 -172
50 -236 117 -380 237 -507 45 -48 122 -95 134 -83 3 3 -2 21 -10 41 -8 20 -15
60 -15 88 0 48 3 55 39 90 22 20 56 42 75 49 20 6 36 15 36 18 0 4 -27 7 -60
7 -68 0 -97 18 -85 54 11 36 60 54 132 48 75 -6 84 13 12 26 -87 16 -120 28
-154 58 -19 17 -35 38 -35 46 0 9 23 36 50 61 28 25 50 51 50 59 0 7 -1 13 -2
13 -2 0 -37 -9 -78 -20 -101 -27 -157 -26 -165 0 -9 28 3 75 23 93 9 8 41 17
70 20 29 3 57 9 63 12 6 4 -9 28 -35 55 -47 50 -58 86 -36 120 6 10 3 25 -10
48 -25 42 -25 53 0 103 22 43 20 46 -34 51 -47 5 -54 29 -22 78 15 23 24 46
19 50 -10 10 -105 30 -138 30 -14 0 -25 -4 -25 -9z"/>
<path d="M319 9613 c-10 -28 -24 -167 -14 -147 7 14 33 174 28 174 -2 0 -8
-12 -14 -27z"/>
<path d="M4729 9575 c-259 -54 -351 -79 -412 -113 -55 -30 -97 -74 -97 -103 0
-17 7 -19 58 -19 31 0 134 16 227 35 94 20 223 47 288 60 65 14 148 25 186 25
100 0 146 -27 311 -186 77 -74 145 -134 151 -134 5 0 -9 36 -32 80 -32 62 -60
98 -128 162 -89 85 -304 239 -331 237 -8 0 -108 -20 -221 -44z"/>
<path d="M232 9288 c-13 -41 -23 -112 -15 -105 7 7 33 131 28 135 -2 2 -8 -12
-13 -30z"/>
<path d="M2980 9165 c0 -3 26 -22 58 -41 100 -64 125 -100 85 -123 -15 -8 -14
-12 14 -38 65 -61 160 -230 189 -338 22 -82 12 -120 -99 -370 -99 -224 -168
-427 -170 -501 -1 -45 3 -58 23 -79 28 -27 141 -60 244 -71 103 -11 245 37
370 123 48 33 55 35 116 31 41 -3 89 -16 130 -33 78 -34 130 -37 167 -9 41 31
65 68 61 95 -4 21 -7 19 -28 -23 -51 -102 -134 -79 -227 63 -24 38 -47 69 -50
69 -3 0 -34 -22 -69 -50 -93 -73 -157 -110 -192 -110 -41 0 -89 57 -172 202
-55 96 -62 114 -56 146 3 20 17 102 31 182 37 212 48 338 35 429 -15 111 -48
171 -149 272 -70 69 -104 94 -180 132 -83 42 -131 57 -131 42z"/>
<path d="M4565 9096 c-37 -11 -34 -12 47 -8 97 5 185 -16 291 -69 73 -37 99
-33 33 6 -124 72 -273 101 -371 71z"/>
<path d="M67 9087 c-2 -6 0 -23 4 -36 8 -19 14 -22 37 -16 30 7 54 25 33 25
-7 0 -26 9 -41 20 -20 14 -29 16 -33 7z"/>
<path d="M4421 8855 c-86 -24 -171 -71 -236 -129 l-60 -53 98 -32 c53 -17 110
-31 125 -31 l27 0 -32 16 c-42 21 -65 48 -57 67 8 21 92 77 114 77 24 0 40
-22 47 -64 9 -56 -3 -84 -40 -96 -23 -7 27 -8 175 -5 212 6 239 2 206 -32 -8
-8 -41 -23 -74 -33 l-59 -20 165 4 c91 2 177 9 192 15 15 5 34 25 44 43 9 18
39 57 68 86 l51 53 -50 -6 c-54 -7 -69 1 -77 40 -3 16 -14 21 -58 27 -30 4
-102 24 -160 44 -95 33 -117 37 -230 40 -91 3 -140 0 -179 -11z"/>
<path d="M100 8815 c-14 -17 -29 -179 -19 -216 5 -22 6 -21 12 10 4 18 7 62 7
97 0 34 5 75 10 90 12 32 8 41 -10 19z"/>
<path d="M7186 8617 c-9 -72 -3 -147 14 -175 11 -20 12 74 1 178 l-7 65 -8
-68z"/>
<path d="M12 8428 c-7 -7 -12 -20 -12 -30 0 -31 66 -125 166 -235 114 -126
144 -176 154 -251 7 -56 7 -57 8 -12 2 76 -31 130 -201 326 -82 94 -100 126
-100 176 0 43 1 42 -15 26z"/>
<path d="M6264 8411 c31 -60 104 -87 258 -97 l113 -7 -18 21 c-35 38 -250 112
-328 112 l-40 0 15 -29z"/>
<path d="M5865 8403 c-3 -10 -13 -79 -20 -154 -8 -75 -24 -183 -37 -240 -20
-93 -23 -131 -23 -354 0 -199 -3 -257 -15 -283 -11 -24 -12 -37 -4 -49 19 -30
62 -56 79 -49 16 6 17 28 10 294 -8 320 -8 321 58 400 46 55 50 70 32 122 -19
55 -19 85 1 115 26 39 16 156 -16 190 -27 29 -55 32 -65 8z"/>
<path d="M6128 8249 c-25 -14 -30 -54 -18 -142 13 -103 45 -210 66 -228 16
-13 16 -10 10 31 -4 31 0 68 14 120 24 93 25 135 2 179 -19 37 -49 54 -74 40z"/>
<path d="M6321 8254 c2 -5 21 -41 41 -80 42 -81 64 -153 73 -240 15 -139 39
-78 29 73 -7 99 -1 112 37 77 16 -14 17 -12 15 38 -1 46 2 53 19 56 12 1 42
-16 75 -43 51 -42 55 -44 58 -24 9 54 -59 109 -158 128 -86 16 -193 25 -189
15z"/>
<path d="M7210 8187 c0 -35 9 -99 21 -143 23 -87 21 -156 -5 -182 -14 -15 -19
-13 -51 18 l-35 34 0 -55 c0 -119 -16 -140 -216 -282 -180 -130 -182 -153 -4
-67 103 51 130 56 130 23 0 -22 -157 -173 -245 -235 -101 -71 -135 -55 -91 45
16 35 15 37 -2 37 -10 0 -50 -20 -88 -45 -38 -24 -76 -45 -85 -45 -9 0 -28 14
-43 30 -31 36 -36 34 -117 -36 -70 -59 -132 -96 -152 -88 -18 7 -30 45 -21 71
4 10 18 30 32 45 20 22 23 30 13 42 -7 8 -25 16 -39 18 -38 4 -39 36 -3 111
28 59 59 182 49 193 -3 3 -20 -25 -37 -63 -18 -37 -42 -81 -55 -98 -59 -77
-86 -182 -86 -333 0 -76 5 -108 21 -148 25 -60 21 -121 -11 -169 -37 -56 -39
-60 -45 -88 -3 -18 -15 -32 -33 -39 -38 -15 -234 -16 -239 -1 -2 6 10 27 27
47 36 40 32 56 -11 56 -46 0 -85 25 -130 86 -45 58 -72 79 -90 68 -52 -32
-191 -503 -279 -943 -63 -317 -74 -408 -75 -596 0 -194 10 -246 77 -382 52
-107 119 -170 353 -332 399 -275 442 -325 338 -392 -52 -32 -269 -139 -284
-139 -19 0 -8 34 26 80 47 64 70 119 55 134 -7 7 -16 7 -28 0 -32 -20 -234
-249 -387 -439 -85 -105 -227 -271 -317 -369 -282 -307 -321 -360 -364 -488
-40 -118 -57 -246 -57 -428 1 -265 44 -504 153 -835 96 -294 124 -442 123
-640 -1 -167 -21 -258 -84 -380 -23 -44 -54 -106 -71 -137 -33 -65 -71 -205
-66 -244 l3 -26 45 35 c93 70 148 85 174 45 8 -13 26 -54 41 -93 39 -104 133
-250 151 -233 3 3 -12 70 -33 149 l-38 144 5 320 c2 176 5 453 5 615 -1 292
-1 297 -33 465 -18 94 -39 231 -47 305 -34 314 -6 704 75 1045 143 600 436
881 1155 1106 137 43 261 48 445 20 172 -27 243 -51 338 -114 106 -70 405
-370 509 -511 150 -202 352 -561 543 -965 287 -608 381 -964 515 -1961 39
-293 63 -438 74 -445 17 -10 33 194 28 355 -18 571 -112 1211 -214 1460 -110
269 -505 984 -740 1342 -164 250 -483 599 -690 755 -71 53 -176 95 -314 124
-89 19 -132 22 -296 21 l-192 -1 -38 28 c-21 15 -74 61 -118 101 -83 76 -173
145 -249 193 -25 15 -48 37 -51 48 -10 32 40 77 170 154 128 76 158 103 180
164 18 53 41 83 131 177 41 42 83 99 103 138 42 82 57 91 123 76 74 -18 149
-9 192 24 42 31 66 73 66 113 0 15 12 55 26 88 88 205 84 314 -14 395 -50 41
-62 39 -60 -10 1 -38 2 -39 19 -24 11 10 25 13 38 9 28 -9 61 -53 61 -81 0
-41 -40 -132 -84 -192 -48 -65 -97 -100 -151 -109 -19 -3 -35 -8 -35 -10 0 -3
16 -23 35 -46 19 -22 35 -46 35 -53 0 -21 -41 -54 -83 -65 -63 -17 -107 25
-107 102 0 40 -23 82 -55 103 -27 18 -28 24 -10 84 7 21 5 22 -58 22 -90 0
-97 9 -97 116 l0 84 -124 0 c-166 0 -169 -2 -107 -59 39 -37 51 -54 51 -77 0
-91 -105 -63 -215 58 -59 64 -118 169 -113 201 3 20 10 22 77 27 45 3 76 10
78 17 8 23 -46 46 -109 47 -47 1 -63 5 -72 19 -9 15 -7 22 13 38 30 24 44 24
223 -7 148 -25 150 -25 186 -6 48 25 56 47 13 39 -17 -4 -44 -10 -61 -13 -45
-10 -38 11 27 79 70 73 57 85 -29 27 -66 -44 -101 -49 -106 -14 -4 27 30 62
212 219 145 126 179 150 201 141 22 -8 43 -47 58 -105 12 -48 18 -55 48 -65
54 -18 50 -47 -21 -148 -60 -86 -73 -124 -46 -134 8 -3 22 -21 30 -39 24 -49
5 -112 -56 -192 -26 -35 -48 -66 -48 -69 0 -10 34 -3 70 16 22 11 41 20 44 20
2 0 23 -16 46 -35 38 -31 48 -35 98 -34 60 1 57 4 -21 14 -116 15 -115 97 1
249 73 95 161 184 220 223 92 61 217 233 271 371 25 63 82 275 75 281 -2 2
-13 -4 -24 -14 -32 -29 -51 -13 -43 40 6 46 -9 65 -20 24 -8 -29 -38 -21 -55
14 -30 62 29 139 191 249 50 35 121 93 158 129 76 75 92 112 91 214 -1 78 -20
138 -65 204 -39 56 -62 121 -73 202 -9 69 -24 61 -24 -14z m-527 -1131 c13
-34 -33 -161 -78 -214 -34 -41 -68 -41 -73 0 -6 48 102 228 136 228 6 0 12 -6
15 -14z m223 -19 c3 -8 -9 -56 -25 -108 -35 -109 -41 -150 -24 -156 7 -3 25
16 40 41 50 81 80 51 38 -38 -37 -77 -107 -170 -156 -206 -70 -50 -109 -33
-70 31 25 40 27 69 6 69 -28 0 -27 27 5 107 75 188 165 314 186 260z m-1298
-1479 c21 -21 13 -57 -23 -97 -47 -52 -90 -70 -113 -48 -15 15 -14 20 4 64 29
69 100 113 132 81z m252 -111 c0 -37 -59 -145 -105 -193 -46 -49 -87 -58 -105
-24 -18 34 11 85 74 125 31 20 68 54 82 75 30 45 54 52 54 17z m366 -92 c8
-21 -20 -62 -58 -85 -61 -37 -67 11 -8 64 44 39 58 44 66 21z m-279 -302 c5
-12 -6 -28 -35 -53 -53 -48 -222 -151 -234 -143 -9 5 -6 27 8 76 5 17 3 17
-32 -2 -27 -15 -42 -18 -56 -10 -43 23 -9 66 78 99 127 47 259 63 271 33z"/>
<path d="M5610 7813 c0 -4 -4 -35 -10 -68 -5 -33 -21 -170 -34 -305 -14 -135
-27 -262 -30 -282 -7 -67 39 -89 63 -30 24 58 43 674 21 687 -5 3 -10 3 -10
-2z"/>
<path d="M161 7463 c-1 -34 4 -65 9 -68 12 -8 12 81 0 110 -6 14 -9 2 -9 -42z"/>
<path d="M302 7455 c0 -16 2 -22 5 -12 2 9 2 23 0 30 -3 6 -5 -1 -5 -18z"/>
<path d="M4624 7375 c-4 -8 -1 -22 6 -30 18 -21 50 -19 50 3 0 36 -45 57 -56
27z"/>
<path d="M220 7365 c0 -21 27 -30 46 -15 12 11 12 15 2 21 -21 14 -48 10 -48
-6z"/>
<path d="M164 7305 c-6 -23 -10 -26 -35 -21 -24 5 -29 2 -29 -15 0 -35 50 -38
94 -6 19 14 19 15 -2 42 l-21 27 -7 -27z"/>
<path d="M3345 7303 c-76 -12 -156 -38 -220 -71 -129 -68 -335 -235 -335 -272
0 -53 205 -307 278 -344 72 -37 209 -82 292 -97 114 -21 425 -18 521 4 117 27
232 115 435 332 l106 114 -45 58 c-90 116 -192 191 -311 229 -78 25 -86 26
-256 20 -143 -5 -186 -4 -235 10 -63 16 -180 25 -230 17z m219 -244 l47 -20
33 20 c42 26 77 26 144 1 29 -11 65 -20 80 -20 15 0 54 -13 87 -28 109 -52
156 -110 103 -127 -13 -4 -151 -9 -308 -12 -323 -6 -373 0 -447 51 -73 50 -67
63 57 113 120 49 140 51 204 22z m247 -345 c20 -24 -1 -49 -41 -49 -40 0 -61
25 -41 49 8 9 26 16 41 16 15 0 33 -7 41 -16z m-189 -11 c9 -10 21 -35 27 -55
7 -20 17 -38 23 -40 7 -3 9 -12 5 -21 -9 -24 -62 -22 -87 3 -32 32 -24 130 10
130 4 0 14 -8 22 -17z"/>
<path d="M5934 7074 c-9 -22 -17 -70 -18 -109 l-1 -70 41 -3 c46 -3 94 27 94
59 0 28 -44 110 -74 138 l-26 24 -16 -39z"/>
<path d="M277 6932 c3 -12 0 -29 -7 -37 -10 -12 -7 -21 18 -49 16 -19 32 -40
34 -47 2 -7 9 -9 17 -5 10 6 9 12 -2 24 -9 10 -20 35 -26 57 -6 22 -17 49 -25
60 -15 19 -15 19 -9 -3z"/>
<path d="M259 6759 c-11 -11 -18 -23 -16 -26 7 -6 57 27 57 38 0 15 -19 10
-41 -12z"/>
<path d="M300 6564 c0 -5 23 -36 52 -69 68 -80 128 -173 128 -200 0 -35 -28
-107 -52 -132 -14 -15 -33 -23 -55 -23 -38 0 -44 -20 -17 -58 20 -30 40 -28
48 4 4 15 29 60 56 101 61 92 65 105 46 142 -32 61 -206 261 -206 235z"/>
<path d="M290 6048 c0 -14 50 -81 57 -75 7 8 -36 87 -47 87 -6 0 -10 -5 -10
-12z"/>
<path d="M6600 6020 c-9 -6 -10 -10 -3 -10 6 0 15 5 18 10 8 12 4 12 -15 0z"/>
<path d="M430 5896 c0 -3 9 -10 20 -16 11 -6 20 -8 20 -6 0 3 -9 10 -20 16
-11 6 -20 8 -20 6z"/>
<path d="M872 5715 c7 -8 176 -65 190 -65 26 0 -18 20 -98 45 -79 25 -102 30
-92 20z"/>
<path d="M1200 5596 c0 -13 -3 -33 -7 -43 -7 -17 -6 -17 17 -2 29 19 38 48 18
60 -21 14 -28 10 -28 -15z"/>
<path d="M1029 5493 c6 -10 24 -34 40 -53 22 -25 31 -30 31 -18 0 10 -14 33
-31 53 -33 37 -57 48 -40 18z"/>
<path d="M5215 1990 c-17 -28 8 -266 56 -540 20 -117 21 -144 15 -435 -8 -423
-1 -451 160 -656 75 -96 170 -235 218 -321 l18 -33 10 25 c9 25 1 141 -27 360
-8 63 -28 254 -45 425 -17 171 -37 353 -46 405 -60 359 -156 592 -307 738 -30
30 -47 40 -52 32z"/>
</g>
</svg>
